<svg xmlns="http://www.w3.org/2000/svg" viewBox="0 0 321.39 64.55"><defs><clipPath id="a"><path d="M159 0h65v64.55h-65Zm0 0"/></clipPath></defs><path d="m163.59 47.07-.469-.058c.082.129.16.261.246.39l.223-.14Zm-.223.332-.07.047-.004.375.59.332h.02c-.18-.254-.368-.5-.536-.754" style="stroke:none;fill-rule:evenodd;fill:#e30513;fill-opacity:1"/><path d="m178.137 48.063-.106-.09-.386.445.109.094ZM185.566 53.242l-.382.45.668-.204M179.879 47.707l.082-.316-.957.25-.191.222.726.235M180.645 47.977l-.137.66.387-.45M182.348 47.586l-.11-.09-.383.445.106.094ZM194.59 49.125l-.387.45-.14-.122.046-.348-.25-.214c-.898 1.234-1.214 1.964-.953 2.191l.723-.547.238-.86.29.243c.167.145.073.418-.278.828l.285.246.336-.39c.258-.301.258-.559-.008-.782l.387-.449M195.617 50.39l.336-.39-.683-.582-.047.637ZM210.953 21.535c.211-.05.356-.172.504-.285-.266-.023-.398-.176-.644-.215-.047.262.046.383.14.5M196.258 23.32c.012-.293-.16-.41-.285-.57-.118.172-.239.336-.215.645.23.039.332-.051.5-.075M197.691 24.465v-.145c-.07 0-.082-.058-.14-.07-.067.125-.266.117-.29.285.153.156.216-.094.43-.07M196.188 25.39c.273-.242.421.243.644.286.27.078.23-.149.36-.215-.188-.36-.5-.594-1.005-.64.083.23-.218.437 0 .57M203.93 29.816c.05.38.398.457.789.5.18-.34-.48-.636-.79-.5M206.223 31.602c.468-.309.246-1.239-.07-1.57-.048.093-.157.132-.29.14.059.27-.086.344-.07.574.187.027.394.035.504.14-.004.22-.234.575-.074.716M202.71 31.531c.403.024.704.153 1.075.211.684-1.332-2.18-1.383-1.074-.21M205.148 31.816c-.039-.277.13-.347.07-.644-.171-.113-.456-.113-.644-.215-.137.176-.21.41-.215.715.192.152.524.27.79.144M199.773 31.816c.13-.347.004-.546-.359-.57-.043.149-.18.203-.144.426.12.098.242.191.503.144M214.324 31.742c.27-.055.34.09.574.074-.043-.234-.5-.261-.574-.074M198.77 32.242c.433.235 1.042.297 1.574.43.027-.184.215-.215.219-.43-.372-.344-1.051-.383-1.793-.355M204.79 34.242c.128-.36.265-.926-.286-.926-.207.344-.121.832.285.926M207.871 34.027c.242-.047.352-.222.574-.285-.023-.164-.074-.308-.215-.355-.226.11-.32.347-.359.64M206.582 34.242c.18.13.375.246.719.215.097-.152-.117-.469-.36-.5-.082.133-.277.152-.359.285M202.137 34.242c-.172.102.133.528.289.285-.172-.023-.043-.336-.29-.285M205.29 35.242c.1-.164.358-.168.433-.355-.153-.176-.66.16-.434.355M167.918 32.957h.148v-.375h-.148ZM168.398 29.355h.301v-.171h-.3ZM168.398 30.781h.454v-.34h-.454ZM168.398 32.04h.301v-.169h-.3ZM169.18 29.727l-.149.171v.168h.48ZM169.031 31.156v.172l.149.168h.152l.18-.168v-.172l-.18-.172h-.152M169.18 28.64h.152v-.374h-.152ZM170.145 27.55h-.48l.3.376.18-.168ZM169.813 29.016l-.153.168v.171h.485ZM169.66 30.613l.305.371.18-.203v-.168l-.333-.34-.152.168M170.773 28.266h-.328v.375" style="stroke:none;fill-rule:nonzero;fill:#e30513;fill-opacity:1"/><g clip-path="url(#a)"><path d="M214.598 46.398c-.082-.132-.094-.336-.145-.5.16-.148.477-.054.574.075a.537.537 0 0 1-.43.425m-.788 0c.02-.28-.168-.359-.145-.64.246-.031.402.027.574.07.043.172.102.328.07.57ZM197.105 4c-.136-.102-.316-.16-.289-.43h.29Zm-.43 2.996c.102.04.372-.082.356.074.082.246-.52.211-.355-.074m-.43-3.21c.102.038.367-.083.356.07.082.246-.52.214-.356-.07m-1.578-1.997c.113.004.273-.035.285.07.078.25-.437.192-.285-.07m2.008.996c.101.04.37-.082.355.07.082.247-.52.215-.355-.07m-5.02.43c-.383-.047-.953.094-1.219-.07.016-.512.836-.22 1.22-.36Zm-2.222 2.5c.113.004.273-.035.289.07.078.25-.442.192-.29-.07M186.712 6c.133-.344.543-.41 1.004-.43.039.512-.524.434-1.004.43m-.36.07c.2.184.497.27.43.711-.199-.18-.496-.265-.43-.71M168.29 20.843c-.027-.29.445-.078.645-.14.027.288-.45.077-.645.14m-2.11 28.242-1.406.184.004-.708.59.333.293-.141h.52Zm1.993 1.46-.004.333-.297.187v.188h.594l-.004.375h-.59c0 .348-.195.52-.594.516h-.515v-.375c.543 0 .812-.11.816-.329l-.004-.375-.808.371-.891-.19c.004-.345.77-.579 2.297-.7m.508 2.308-.516-.003v-.516l.52-.375Zm22.906-31.226c2.5-.18 4.941.215 6.738 1.074.414.195.867.39 1.219.64.312.223.5.63.934.716-.61.101-1.602.277-2.082.07-.301-.016-.32.254-.575.285-5.433.965-9.015 3.777-11.683 7.496.078.258.27.774.074 1.07-.027.301-.399-.136-.574-.144-1.828 2.879-3.028 6.82-2.797 11.422.035.71.129 1.387.25 2.05-.223.032-.567.313-1.031.856l-.106-.094.047-.347-.145-.121-.574.671.285.247c.141.117.68-.153 1.602-.801.02.086.031.172.05.254l-.202.234.109.09.148-.035c.66 2.75 1.938 5.047 3.23 6.937l-.054.008.145.125c.062.09.125.188.187.273.41-.097.723-.046 1.149 0-.07.313-.325.442-.645.504.645.805 1.344 1.563 2.223 2.141-7.23-.586-12.48-3.758-16.274-7.996-.164.078-.191.504-.43.285-.199-.129-.167-.562-.074-.785-.562-.606-1.03-1.305-1.574-1.926-.402-14.25 7.778-24.281 20.43-25.2m-3.371 28.196c-.098.16-.18.332-.27.496l-.023.008-.192.227-.011.066a.842.842 0 0 1-.508.277c.262-.433.398-.988 1.004-1.074m13.98-29.55v.785c-.324-.008-.496-.176-.789-.215.153-.297.301-.602.79-.57m21.792 12.632c.07-10.613-4.332-18.37-9.605-23.625C209.238 4.161 202.516.59 193.52.074c-.168.192-.235.48-.715.356-.239-.024.304-.246-.075-.215-.46.265-.636-.164-1-.211-5.41-.035-9.68 1.07-13.19 2.926.788.058 1.464-.055 1.933.5-.067.289-.332.379-.57.5-.72-.442-2.09.144-2.583-.575-9.445 5.243-16.703 13.368-17.777 26.555-.531 6.496 1.066 12.36 3.297 16.774.015.03.031.054.047.086l.785-.184.297.187v.141c-.164.238-.406.414-.711.54.355.66.734 1.312 1.14 1.948l.082.055 1.403-.184h.297c.734.254 1.105.614 1.105 1.082l-1.406.516h-.5c5.281 7.45 13.851 13.02 24.629 13.586 1.058.055 2.035.129 3.082.074 10.96-.574 18.195-5.656 23.586-11.851-.969-1.344-1.98-2.645-3.082-3.852.039.442-.496.543-.649.211-.015.129.075.36-.14.29-.43.07-.446-.274-.575-.5-.351.171.254.44-.214.5-.32.01-.188-.255-.07-.36-.208.015-.395.008-.36-.215-.043-.543.129-.867.574-.926-.012.223-.004.43.14.5.005-.238-.027-.508.216-.5.445-.11.351.317.504.5.09-.555-.59-.93-.86-1.36-1.375 1.919-3.207 3.677-5.234 5.286-1.977 1.566-4.137 3.195-7.028 3.496-3.386.355-6.195-1.695-7.812-3.496-.133-.152-.258-.309-.383-.461l.195-.297-.144-.125-.309.094c-.254-.34-.484-.695-.699-1.059l.23-.086.337-.39.523-1.399c-.36-.304-.875-.258-1.547.137l-.195.223-.074.117c-.028-.055-.047-.106-.075-.16l.2-.305-.25-.215-.114.133a21.885 21.885 0 0 1-.847-2.563c-.274.258.027.532 0 .645-.395-.059-.797-.36-.79-.57.008-.188.633-.364.72-.79.085-.44-.247-.453-.145-.995-.102-.141-.23.285-.574.14-.118-.43.246-1.34-.215-1.426-.04.02.222.723 0 .926h-.504c.308-1.113-.942-1.258-.93-1.926.008-.52.508-.414.5-1.07.414-.031.711.434.719.57-.149.043-.5-.113-.43.145-.105.531.164.691.36.926.164-.032.46-.293.644-.07.324.152-.11-.16-.144-.286.117-.238.167-.547.285-.785.125-.012.285.402.289.07.054-.386-.114-.55-.074-.925.03-.141.28-.059.218-.286 1.14-6.05 4.813-9.578 10.465-11.136.14.12.164.36.5.285.242-.05.121-.41.215-.43 2.152-.36 4.828-.265 6.383.57-.242.079-.29.434 0 .5.34-.082.066-.394.14-.5.485.258 1.02.465 1.434.79-.04.3.055.468.07.71.297.211.496-.3.72-.14.683.45.624 1.066 1.218 1.426-.184-.54.414-.602.289-.856.02-.223-.207.18-.219-.07.176-.735.211-1.598.219-2.5-.16-.082-.465.676-.649.57.188-.48.36-.976.575-1.426-.47-3.02-1.575-4.968-3.227-6.78.086-.083.328-.61.074-.571-.175-.164-.48-.059-.504.14-1.125-.996-2.332-1.91-3.726-2.64.027.426-.067.969.215 1.144.238-.074-.133-.754.215-.715.289.114.3.508.359.856-.457.465-1.473.055-2.008-.07v-.43c.281-.195.84-.113.719-.715-.559-.004-1.113.371-1.653.145-.265-.66.633-.875.36-1.07-.363-.165-.684-.364-1.149-.43-.09.312-.25.558-.355.855-.082.395.559.442.355.715-.37.066-.265-.348-.64-.285-.047.242.09.664-.074.785h-.43c-.082-.441-.293-.758-.79-.785.048-.192.302-.176.29-.43-.668-.023-1.113-.273-1.008-1.07.176.066.191.289.504.215v-.641c-.535.094-.355-.137-.645-.215-4.433-1.05-10.238-.441-13.835 1 .238-.05.117.145.07.215-.29.305-.656.012-1 .07-.567.094-1.246.563-1.867.856-1.856.875-3.664 2.023-4.946 3.21.22.095.575.048.715.216-.332.285.13.136.29.285-.669.148-1.208.761-2.009.36-.34.347-1.035.784-.93 1.14-.25-.055-.304.078-.429.14-1.469 1.598-2.726 3.403-3.8 5.391l-.044-.05h-.332v.167l.2.227c-.415.793-.801 1.613-1.16 2.46h-.153v.344a36.298 36.298 0 0 0-.695 1.832h-.086v.172h.027a33.13 33.13 0 0 0-.48 1.45 28.067 28.067 0 0 1-.121-2.274l.246.277.148-.171v-.204h-.394c-.016-.863.011-1.707.07-2.539l.023.024h.153l.148-.168v-.172l-.148-.168h-.141c.027-.309.05-.617.086-.918h.203l-.176-.2c.371-2.98 1.18-5.655 2.336-7.76.016-.38.047-.364 0-.716.227.035.281-.101.434-.144 4.02-6.809 10.273-12.348 20.07-13.203 1.012-.09 2.227-.192 3.227-.145 12.98.613 23.37 10.895 24.086 23.559.047.84.109 1.48.07 2.28-.25 5.4-1.844 9.911-4.371 13.563 1.5 1.887 3.015 3.758 4.441 5.711 3.781-4.757 6.61-10.457 6.883-18.703-.02-.144-.266-.066-.285-.21.18-.036.289-.141.36-.29" style="stroke:none;fill-rule:nonzero;fill:#e30513;fill-opacity:1"/></g><path d="M321.39 4.125V.691H306.88V63.86h3.953V31.75h9.29v-3.438h-9.29V4.125ZM146.485 29.082c0 4.543-.293 5.273-4.304 5.273h-1.887V4.125h3.094c2.707 0 3.097.328 3.097 5.277Zm1.297 7.371c1.563-.93 2.653-2.773 2.653-6.336V8.797c0-3.613 0-8.106-6.805-8.106h-7.285V63.86h3.949V37.79h1.644c2.774 0 3.7.484 4.067 6.234l1.418 19.836h4.086l-1.559-20.64c-.207-2.649-.668-5.18-2.168-6.766M239.395 0c-6.5 0-7.047 4.008-7.047 8.105v6.391c0 7.992 2.613 12.258 5.14 16.383 2.512 4.094 4.88 7.965 4.88 15.64v9.32c0 4.95-.388 5.274-3.095 5.274-2.703 0-3.093-.324-3.093-5.273V41.52h-3.95v14.925c0 3.922.543 8.106 7.043 8.106 6.813 0 6.946-4.664 7.047-8.106V46.172c0-8.125-2.613-12.39-5.14-16.516-2.508-4.093-4.88-7.96-4.88-15.765V8.71c0-4.95.387-5.277 3.095-5.277 2.707 0 3.097.328 3.097 5.277v11.73h3.95V8.105c0-3.418 0-8.105-7.047-8.105M118.227 41.531l2.855-34.66 2.742 34.66Zm.191-40.836-5.797 63.164h3.563l1.593-16.785.168-2.113h6.153l.172 2.113 1.714 16.785h3.559L123.746.695ZM267.52 55.84c0 4.95-.387 5.273-3.094 5.273h-.567c-2.707 0-3.093-.324-3.093-5.273V.69h-3.954v55.754c0 3.918.543 8.102 7.047 8.102h.567c6.808 0 6.945-4.66 7.047-8.102V.691h-3.953ZM0 4.125h7.727v59.734h3.949V4.125h7.726V.691H0Zm291.516 24.957c0 4.543-.29 5.273-4.301 5.273h-1.887V4.125h3.094c2.707 0 3.094.328 3.094 5.277Zm1.3 7.371c1.563-.93 2.653-2.773 2.653-6.336V8.797c0-3.613 0-8.106-6.805-8.106h-7.285l-.004 63.168h3.953V37.79h1.645c2.773 0 3.699.484 4.066 6.234l1.418 19.836h4.082l-1.559-20.64c-.203-2.649-.664-5.18-2.164-6.766M52.113.691h-3.949V63.86h12.883v-3.433h-8.934ZM30.324 31.75h7.727v-3.438h-7.727V4.125h8.934V.691H26.37V63.86h12.887v-3.433h-8.934ZM89.371 4.125h7.727v59.734h3.953V4.125h7.722V.691H89.371ZM75.411 0c-6.5 0-7.044 4.008-7.044 8.105v6.391c0 7.992 2.61 12.258 5.137 16.383 2.512 4.094 4.883 7.965 4.883 15.64v9.32c0 4.95-.39 5.274-3.098 5.274-2.703 0-3.094-.324-3.094-5.273V41.52h-3.949v14.925c0 3.918.543 8.102 7.043 8.102 6.813 0 6.95-4.66 7.047-8.102V46.172c0-8.125-2.613-12.39-5.14-16.516-2.508-4.093-4.88-7.96-4.88-15.765V8.71c0-4.95.391-5.277 3.094-5.277 2.707 0 3.098.328 3.098 5.277v11.73h3.949V8.105c0-3.418 0-8.105-7.047-8.105" style="stroke:none;fill-rule:nonzero;fill:#1c1c1b;fill-opacity:1"/></svg>